HIERARCHY
ROOT root
{
	OFFSET 0.000000 0.000000 0.000000
	CHANNELS 6 Xposition Yposition Zposition Zrotation Yrotation Xrotation
	JOINT lhip
	{
		OFFSET 0.058581 -0.082280 -0.017664
		CHANNELS 3 Zrotation Yrotation Xrotation
		JOINT lknee
		{
			OFFSET 0.043451 -0.386469 0.008037
			CHANNELS 3 Zrotation Yrotation Xrotation
			JOINT lankle
			{
				OFFSET -0.014790 -0.426874 -0.037428
				CHANNELS 3 Zrotation Yrotation Xrotation
				JOINT ltoe
				{
					OFFSET 0.041054 -0.060286 0.122042
					CHANNELS 3 Zrotation Yrotation Xrotation
					End Site
					{
						OFFSET 0.000000 0.000000 0.000000
					}
				}
			}
		}
	}
	JOINT rhip
	{
		OFFSET -0.060310 -0.090513 -0.013543
		CHANNELS 3 Zrotation Yrotation Xrotation
		JOINT rknee
		{
			OFFSET -0.043257 -0.383688 -0.004843
			CHANNELS 3 Zrotation Yrotation Xrotation
			JOINT rankle
			{
				OFFSET 0.019056 -0.420046 -0.034562
				CHANNELS 3 Zrotation Yrotation Xrotation
				JOINT rtoe
				{
					OFFSET -0.034840 -0.062106 0.130323
					CHANNELS 3 Zrotation Yrotation Xrotation
					End Site
					{
						OFFSET 0.000000 0.000000 0.000000
					}
				}
			}
		}
	}
	JOINT lowerback
	{
		OFFSET 0.004439 0.124404 -0.038385
		CHANNELS 3 Zrotation Yrotation Xrotation
		JOINT upperback
		{
			OFFSET 0.004488 0.137956 0.026820
			CHANNELS 3 Zrotation Yrotation Xrotation
			JOINT chest
			{
				OFFSET -0.002265 0.056032 0.002855
				CHANNELS 3 Zrotation Yrotation Xrotation
				JOINT lowerneck
				{
					OFFSET -0.013390 0.211636 -0.033468
					CHANNELS 3 Zrotation Yrotation Xrotation
					JOINT upperneck
					{
						OFFSET 0.010113 0.088937 0.050410
						CHANNELS 3 Zrotation Yrotation Xrotation
						End Site
						{
							OFFSET 0.000000 0.000000 0.000000
						}
					}
				}
				JOINT lclavicle
				{
					OFFSET 0.071702 0.114000 -0.018898
					CHANNELS 3 Zrotation Yrotation Xrotation
					JOINT lshoulder
					{
						OFFSET 0.122921 0.045205 -0.019046
						CHANNELS 3 Zrotation Yrotation Xrotation
						JOINT lelbow
						{
							OFFSET 0.255332 -0.015649 -0.022946
							CHANNELS 3 Zrotation Yrotation Xrotation
							JOINT lwrist
							{
								OFFSET 0.265709 0.012698 -0.007375
								CHANNELS 3 Zrotation Yrotation Xrotation
								End Site
								{
									OFFSET 0.000000 0.000000 0.000000
								}
							}
						}
					}
				}
				JOINT rclavicle
				{
					OFFSET -0.082954 0.112472 -0.023707
					CHANNELS 3 Zrotation Yrotation Xrotation
					JOINT rshoulder
					{
						OFFSET -0.113228 0.046853 -0.008472
						CHANNELS 3 Zrotation Yrotation Xrotation
						JOINT relbow
						{
							OFFSET -0.260127 -0.014369 -0.031269
							CHANNELS 3 Zrotation Yrotation Xrotation
							JOINT rwrist
							{
								OFFSET -0.269108 0.006794 -0.006027
								CHANNELS 3 Zrotation Yrotation Xrotation
								End Site
								{
									OFFSET 0.000000 0.000000 0.000000
								}
							}
						}
					}
				}
			}
		}
	}
}
MOTION
Frames: 10
Frame Time: 0.033333
-1.965689 0.314098 1.018745 88.615664 1.372910 92.765090 3.845233 2.009462 3.709961 -3.304926 -5.923908 1.170562 2.783793 9.725505 -14.434263 0.000000 -0.000000 0.000000 -4.222359 -2.704524 -5.333487 1.692047 -1.959913 14.288844 5.111099 -5.950360 -11.031293 0.000000 -0.000000 0.000000 -0.883260 0.081152 0.420211 0.729455 -1.547046 -2.631489 0.533707 -1.165186 1.799920 5.855901 4.636871 -9.807150 2.116807 -1.692824 3.776753 -25.933155 8.601740 0.371510 -60.218003 -6.280983 8.168961 9.696628 -29.786645 5.870823 -0.487873 -3.261281 -3.954749 27.304567 -1.697155 -0.505099 60.693787 4.431081 15.056147 -11.346588 23.568240 -0.678665 6.787114 2.677310 -3.824265 
-1.966018 0.314066 1.018780 88.486811 1.457565 92.729377 3.903502 2.156225 3.731382 -3.264944 -5.894345 1.226232 2.833925 9.686000 -14.438381 0.000000 -0.000000 0.000000 -4.125537 -2.616629 -5.284815 1.714354 -1.790229 14.205992 5.112242 -5.988353 -11.139718 0.000000 -0.000000 0.000000 -0.817763 0.022134 0.437653 0.780474 -1.562953 -2.588506 0.554932 -1.101453 1.846656 5.832640 4.541499 -9.920610 1.986393 -1.762092 3.850293 -25.815066 8.546707 0.375403 -60.330783 -6.312657 8.201962 9.541758 -29.799478 6.178057 -0.461922 -2.993116 -3.979845 27.221427 -1.593285 -0.513242 60.666625 4.576252 15.096596 -11.332171 23.936899 -0.545047 6.723427 2.533168 -3.838412 
-1.966863 0.314105 1.018713 88.266086 1.469620 92.752171 3.879124 2.161783 3.701050 -3.265293 -5.883113 1.161183 2.838754 9.843945 -14.411095 0.000000 -0.000000 0.000000 -4.127848 -2.467612 -5.455781 1.728573 -1.756326 14.284630 5.129969 -5.981340 -11.100022 0.000000 -0.000000 0.000000 -0.853867 -0.087965 0.535111 0.789628 -1.458580 -2.683673 0.624764 -1.064158 1.818557 5.697484 4.653131 -9.795176 1.955841 -1.690891 3.992620 -25.680211 8.514960 0.370166 -60.478215 -6.252094 8.238205 9.555239 -29.708222 6.175502 -0.370676 -2.949627 -4.021875 27.100755 -1.541352 -0.459727 60.731086 4.726247 15.162357 -11.491746 24.221455 -0.617735 6.617825 2.597981 -3.987135 
-1.967727 0.314419 1.018791 87.848508 1.493573 92.678551 3.809039 2.186265 3.870974 -3.200078 -5.791635 0.989512 2.876939 9.971417 -14.307662 0.000000 -0.000000 0.000000 -4.196145 -2.217180 -5.575077 1.783759 -1.744749 14.343264 5.287553 -5.890425 -10.925686 0.000000 -0.000000 0.000000 -0.776216 -0.213608 0.809620 0.707753 -1.257003 -2.813451 0.598306 -0.926116 1.802185 5.476538 5.139315 -9.779020 1.925716 -1.463013 4.347143 -25.540333 8.545176 0.258597 -60.508700 -6.265394 8.277191 9.471530 -29.551288 6.216581 -0.269057 -3.186402 -3.935988 27.176593 -1.521665 -0.509468 60.591293 5.009433 15.264684 -11.358056 24.199322 -0.683664 6.533140 2.784487 -4.049591 
-1.967695 0.314587 1.018909 87.781632 1.536340 92.636472 3.838602 2.269589 3.862643 -3.218146 -5.720597 1.066401 2.937655 10.034785 -14.449511 0.000000 -0.000000 0.000000 -4.134001 -2.247799 -5.567059 1.785700 -1.620201 14.418173 5.153635 -5.851291 -11.119445 0.000000 -0.000000 0.000000 -0.891566 0.059019 0.671039 0.830178 -1.047185 -2.744566 0.777852 -1.252775 1.834866 5.364285 4.948596 -9.509564 1.823579 -1.439468 4.356526 -25.789716 8.270609 0.489963 -60.467494 -6.314668 8.226146 9.610245 -29.387983 5.915648 -0.342110 -2.954625 -3.834252 27.118166 -1.488481 -0.461220 60.401227 4.949403 15.128109 -11.464452 24.353737 -0.830758 6.516384 2.685337 -4.044330 
-1.968146 0.314798 1.018957 87.579143 1.503231 92.616588 3.793471 2.375548 3.933856 -3.239940 -5.683652 0.948947 2.911124 10.056938 -14.429556 0.000000 -0.000000 0.000000 -4.222734 -2.222157 -5.641413 1.812702 -1.600757 14.449008 5.212728 -5.706421 -11.081458 0.000000 -0.000000 0.000000 -0.687625 -0.191338 0.815399 0.700065 -1.176496 -2.830584 0.532847 -0.941986 1.795661 5.449382 5.092365 -9.641949 1.718818 -1.429827 4.476679 -25.731429 8.535424 0.243525 -60.271459 -6.171837 8.195493 9.542823 -29.436757 5.992122 -0.214023 -3.161697 -3.691120 27.274709 -1.438459 -0.481879 60.462571 5.031022 15.250166 -11.538441 24.248722 -0.828787 6.283261 2.803797 -3.941873 
-1.968387 0.314982 1.018940 87.544965 1.534380 92.583480 3.819931 2.433837 3.891173 -3.254373 -5.729942 1.093821 2.952198 10.000685 -14.503938 0.000000 -0.000000 0.000000 -4.205877 -2.281258 -5.659315 1.807025 -1.579611 14.498488 5.150631 -5.717394 -11.026247 0.000000 -0.000000 0.000000 -0.717394 -0.124029 0.851612 0.750320 -1.096601 -2.869672 0.606791 -1.037343 1.829530 5.280815 5.237915 -9.410547 1.565566 -1.147882 4.624183 -25.751821 8.498576 0.298748 -60.325844 -6.198310 8.183773 9.600321 -29.201942 6.089395 -0.179964 -3.141095 -3.655837 27.252829 -1.501175 -0.502209 60.341849 5.161888 15.200241 -11.414725 24.122401 -0.844721 6.279130 2.835370 -3.981853 
-1.968534 0.315118 1.019005 87.527200 1.515702 92.622261 3.832821 2.540261 3.843223 -3.306899 -5.730690 1.095928 2.920796 9.891763 -14.536862 0.000000 -0.000000 0.000000 -4.226187 -2.304224 -5.755446 1.815608 -1.477283 14.538646 5.251713 -5.680001 -11.051741 0.000000 -0.000000 0.000000 -0.652697 -0.234019 0.791229 0.738159 -1.164437 -2.890295 0.498880 -0.973008 1.847391 5.286025 5.357614 -9.414069 1.452586 -1.104101 4.719576 -25.849884 8.733641 0.129785 -60.161278 -6.137756 8.127189 9.532619 -29.122921 6.114325 -0.081849 -3.087901 -3.528653 27.410549 -1.587858 -0.473142 60.253917 5.215300 15.245509 -11.471549 24.065448 -0.944871 6.090464 2.781580 -3.842969 
-1.968808 0.315359 1.019094 87.573158 1.547824 92.650041 3.836660 2.423008 3.877635 -3.305258 -5.810301 0.961518 2.932993 10.062593 -14.486208 0.000000 -0.000000 0.000000 -4.235910 -2.271338 -5.705183 1.890939 -1.446942 14.390021 5.177437 -5.833011 -10.969890 0.000000 -0.000000 0.000000 -0.570005 -0.284632 0.766626 0.689016 -1.145252 -2.883243 0.455404 -0.950360 1.887279 5.224428 5.550214 -9.619066 1.490961 -1.054921 4.902280 -25.939247 8.827617 0.004835 -60.037952 -6.135153 8.157637 9.494605 -29.171037 6.148066 -0.138026 -3.093295 -3.475799 27.550310 -1.663564 -0.573658 60.091435 5.095862 15.273656 -11.400721 24.055262 -0.975024 6.177272 2.708608 -3.771376 
-1.969147 0.315629 1.019083 87.518210 1.523032 92.658237 3.794429 2.504850 3.869481 -3.315950 -5.848590 0.886615 2.975048 10.096482 -14.387115 0.000000 -0.000000 0.000000 -4.267971 -2.152731 -5.721351 1.845998 -1.466048 14.294259 5.322944 -5.837883 -10.837887 0.000000 -0.000000 0.000000 -0.557257 -0.300369 0.848556 0.667587 -0.995248 -3.013904 0.462131 -1.016413 1.813480 5.180033 5.527357 -9.512527 1.410514 -1.162885 5.292313 -26.011381 9.005142 -0.096805 -59.920929 -6.048576 8.176439 9.289605 -29.114588 6.205982 -0.052932 -3.100082 -3.343261 27.526241 -1.869908 -0.571086 60.102333 4.975520 15.283383 -11.398148 23.849631 -0.963125 5.932788 2.607213 -3.614202 
